HIERARCHY
ROOT hip
{
	OFFSET 0.000000 0.000000 0.000000 
	CHANNELS 6 Xposition Yposition Zposition Xrotation Zrotation Yrotation
	JOINT abdomen
	{
		OFFSET 0.000000 3.402643 0.000000 
		CHANNELS 3 Xrotation Zrotation Yrotation
		JOINT chest
		{
			OFFSET 0.000000 8.438565 -0.680529 
			CHANNELS 3 Xrotation Zrotation Yrotation
			JOINT neck
			{
				OFFSET 0.000000 10.207942 -0.272212 
				CHANNELS 3 Xrotation Zrotation Yrotation
				JOINT head
				{
					OFFSET 0.000000 3.130431 0.000000 
					CHANNELS 3 Xrotation Zrotation Yrotation
					End Site
					{
						OFFSET 0.000000 3.130435 0.000000 
					}
				}
			}
			JOINT lCollar
			{
				OFFSET 3.470700 6.669187 -0.816635 
				CHANNELS 3 Yrotation Zrotation Xrotation
				JOINT lShldr
				{
					OFFSET 3.198488 0.000000 0.000000 
					CHANNELS 3 Zrotation Yrotation Xrotation
					JOINT lForeArm
					{
						OFFSET 10.139888 0.000000 0.000000 
						CHANNELS 3 Yrotation Zrotation Xrotation
						JOINT lHand
						{
							OFFSET 8.370511 0.000000 0.000000 
							CHANNELS 3 Zrotation Yrotation Xrotation
							End Site
							{
								OFFSET 4.083176 0.000000 0.000000 
							}
						}
					}
				}
			}
			JOINT rCollar
			{
				OFFSET -3.470700 6.669187 -0.816635 
				CHANNELS 3 Yrotation Zrotation Xrotation
				JOINT rShldr
				{
					OFFSET -3.198488 0.000000 0.000000 
					CHANNELS 3 Zrotation Yrotation Xrotation
					JOINT rForeArm
					{
						OFFSET -10.139888 0.000000 0.000000 
						CHANNELS 3 Yrotation Zrotation Xrotation
						JOINT rHand
						{
							OFFSET -8.370511 0.000000 0.000000 
							CHANNELS 3 Zrotation Yrotation Xrotation
							End Site
							{
								OFFSET -4.083176 0.000000 0.000000 
							}
						}
					}
				}
			}
		}
	}
	JOINT lThigh
	{
		OFFSET 5.308129 -1.633274 1.361059 
		CHANNELS 3 Xrotation Zrotation Yrotation
		JOINT lShin
		{
			OFFSET -2.041588 -20.007561 0.000000 
			CHANNELS 3 Xrotation Zrotation Yrotation
			JOINT lFoot
			{
				OFFSET 0.000000 -19.190928 -1.224953 
				CHANNELS 3 Xrotation Yrotation Zrotation
				End Site
				{
					OFFSET 0.000000 -2.449906 4.627600 
				}
			}
		}
	}
	JOINT rThigh
	{
		OFFSET -5.308129 -1.633274 1.361059 
		CHANNELS 3 Xrotation Zrotation Yrotation
		JOINT rShin
		{
			OFFSET 2.041588 -20.007561 0.000000 
			CHANNELS 3 Xrotation Zrotation Yrotation
			JOINT rFoot
			{
				OFFSET 0.000000 -19.190928 -1.224953 
				CHANNELS 3 Xrotation Yrotation Zrotation
				End Site
				{
					OFFSET 0.000000 -2.449906 4.627600 
				}
			}
		}
	}
}
MOTION
Frames: 8
Frame Time: 0.016667
-52.063156 34.982113 19.530560 -64.064926 -3.156865 68.296196 -5.435463 -18.418549 -14.676291 -9.494290 24.069601 -10.414816 19.278477 1.889777 8.883785 1.271475 7.781310 3.815813 1.993405 -2.003458 -0.008156 -41.961239 -68.332420 -94.684647 0.388781 -21.686071 -0.939660 -0.081650 0.096336 9.433614 -2.003062 1.991579 -0.506922 -28.055092 -118.734848 57.373970 0.176414 -19.776859 -0.474330 0.057260 -0.061113 26.621111 3.110439 -54.885735 24.030031 -4.495980 73.369164 -0.813436 -0.960197 -3.982709 -42.534393 30.065092 9.490599 -5.417046 2.425866 79.357758 -1.581774 -1.220795 -3.354964 -33.152466 
-52.386887 34.923717 19.627342 -61.672901 -5.587852 69.897095 -5.400892 -17.631357 -11.953603 -8.252072 24.898464 -8.708897 18.110220 1.290199 10.646635 1.103510 7.625555 4.863250 1.993405 -2.003458 -0.008156 -49.213707 -62.600800 -91.907623 0.376269 -20.904617 -0.938342 -0.076292 0.095291 12.636750 -2.003062 1.991579 -0.506922 -34.246864 -116.979752 60.470856 0.165634 -19.386154 -0.482005 0.051185 -0.040724 33.486332 6.692239 -52.991047 18.998814 -4.525926 72.966400 -0.817704 -0.068419 -2.581457 -42.314159 26.795414 9.471904 -8.428672 2.026561 79.164207 -1.975690 -1.279143 -2.705307 -33.451500 
-52.564072 34.929722 19.713245 -59.773903 -8.133777 71.216721 -5.035999 -17.037428 -8.864748 -6.266603 25.287048 -6.500997 16.367945 0.543452 12.308137 0.718865 7.392001 5.815636 1.993405 -2.003458 -0.008156 -54.780014 -58.154526 -88.116623 0.353074 -19.908165 -0.941433 -0.073638 0.084545 15.859399 -2.003062 1.991579 -0.506922 -39.645695 -114.573692 64.823257 0.176124 -19.513191 -0.475134 0.049840 -0.039801 35.400394 10.216613 -50.693817 13.377730 -4.508456 72.525894 -0.762837 0.686915 -1.123128 -41.800236 24.125359 9.771624 -11.334833 1.761351 78.481415 -2.232291 -1.308844 -1.639816 -33.319435 
-52.643848 35.001369 19.838037 -58.217815 -10.577225 72.614754 -4.344196 -16.722099 -5.849830 -3.830268 25.487307 -4.119991 14.834268 -0.349286 14.409389 0.354317 7.148302 6.968791 1.993405 -2.003458 -0.008156 -59.082687 -54.458252 -84.763977 0.330044 -18.794580 -0.957495 -0.070311 0.073183 20.488300 -2.003062 1.991579 -0.506922 -44.669952 -111.065491 70.805138 0.176446 -19.806156 -0.474241 0.046181 -0.049120 33.037125 13.475798 -48.303383 7.981785 -4.471033 72.615318 -0.722409 0.961239 -0.729894 -41.165466 22.064236 10.609978 -14.487720 1.614719 77.456680 -2.348496 -1.349476 -0.073867 -32.985981 
-52.789024 35.178677 19.964331 -56.846306 -13.741452 74.035973 -3.629793 -16.696827 -2.922634 -1.255835 25.570812 -1.711478 13.596914 -1.224470 16.979115 0.098384 6.972646 8.313823 1.993405 -2.003458 -0.008156 -61.843758 -51.740902 -83.611374 0.318125 -17.925236 -0.955516 -0.058117 0.061535 25.820339 -2.003062 1.991579 -0.506922 -52.101799 -106.825523 78.441574 0.176642 -19.981939 -0.473706 0.046727 -0.049471 32.402355 15.027740 -46.184666 3.561891 -4.498504 73.232971 -0.729814 0.744725 -1.628846 -40.104065 19.110302 12.059257 -17.671667 1.605013 75.610748 -2.346929 -1.366096 1.435261 -32.075710 
-53.007465 35.440262 20.072367 -55.582455 -17.715036 75.438354 -2.789566 -17.109797 0.311609 2.031264 25.327868 1.107814 11.747286 -2.227781 19.292688 0.009838 6.962891 9.562916 1.993405 -2.003458 -0.008156 -63.460293 -50.999584 -83.592422 0.307176 -17.524689 -0.960601 -0.063650 0.042386 29.765640 -2.003062 1.991579 -0.506922 -63.249115 -103.476570 89.952515 0.176973 -20.274906 -0.472815 0.046483 -0.049315 32.685558 14.802929 -44.340145 0.233243 -4.600664 74.614479 -0.788559 0.503862 -2.757941 -39.496445 14.948783 13.764790 -20.799145 1.557424 73.315506 -2.391773 -1.467593 2.559787 -30.829012 
-53.254169 35.703098 20.178024 -54.598652 -20.671389 76.986893 -1.499438 -18.031334 3.890322 5.536976 24.693064 4.076940 10.095017 -3.297867 21.190392 -0.383386 6.581886 10.522751 1.993405 -2.003458 -0.008156 -63.970051 -52.220459 -83.344215 0.307077 -17.466095 -0.960906 -0.067734 0.033460 31.064465 -2.003062 1.991579 -0.506922 101.730759 -78.817627 -73.975372 0.188080 -20.841391 -0.467623 0.047438 -0.049916 31.582047 15.201900 -43.196945 -2.412044 -4.670295 76.458328 -0.817500 0.666537 -2.984116 -39.598724 11.678935 15.338211 -23.985249 1.567523 71.050049 -2.333991 -1.569646 3.684180 -29.470428 
-53.553772 35.993443 20.223415 -53.837547 -22.061827 78.767723 0.041375 -19.248041 7.522966 8.207132 23.717587 6.652583 8.797899 -4.584327 22.875185 -0.638431 6.142200 11.377391 1.993405 -2.003458 -0.008156 -63.661972 -54.646957 -83.454521 0.307011 -17.427034 -0.961110 -0.067422 0.033270 31.601574 -2.003062 1.991579 -0.506922 79.534836 -80.446716 -50.559032 0.188939 -21.515244 -0.475247 0.054593 -0.059701 29.150404 17.008539 -42.758080 -4.789869 -4.835918 78.476860 -0.971226 1.128824 -2.415189 -40.040436 9.706879 16.524094 -27.060638 1.544963 69.302208 -2.318989 -1.709287 4.693561 -28.200701 
